<svg xmlns="http://www.w3.org/2000/svg" version="1.1" xmlns:xlink="http://www.w3.org/1999/xlink" xmlns:svgjs="http://svgjs.com/svgjs" width="1440" height="560" preserveAspectRatio="none" viewBox="0 0 1440 560"><g clip-path="url(&quot;#SvgjsClipPath1000&quot;)" fill="none"><rect width="1440" height="560" x="0" y="0" fill="#0e2a47"></rect><circle r="93.335" cx="-5.32" cy="-66.7" stroke="#365aa3" stroke-opacity="0.25" stroke-width="2"></circle><circle r="93.335" cx="419.84" cy="439.58" stroke="#365aa3" stroke-opacity="0.25" stroke-width="2"></circle><circle r="93.335" cx="817.26" cy="729.08" stroke="#365aa3" stroke-opacity="0.25" stroke-width="2"></circle><circle r="122.905" cx="785.58" cy="460.42" stroke="#365aa3" stroke-opacity="0.25" stroke-width="2"></circle><circle r="111.6" cx="289.33" cy="389.34" stroke="#365aa3" stroke-opacity="0.25" stroke-width="2"></circle><circle r="154.69" cx="791.05" cy="162.58" stroke="#365aa3" stroke-opacity="0.25" stroke-width="2"></circle><circle r="76.63" cx="466.99" cy="439.15" stroke="#365aa3" stroke-opacity="0.25" stroke-width="2"></circle><circle r="115.535" cx="829.51" cy="153.39" stroke="#365aa3" stroke-opacity="0.25" stroke-width="2"></circle><circle r="144.655" cx="1083.42" cy="34.51" stroke="#365aa3" stroke-opacity="0.25" stroke-width="2"></circle><circle r="103.885" cx="1118.51" cy="35.65" stroke="#365aa3" stroke-opacity="0.25" stroke-width="2"></circle><circle r="181.97" cx="205.86" cy="412.72" stroke="#365aa3" stroke-opacity="0.25" stroke-width="2"></circle><circle r="67.175" cx="1316.89" cy="147.17" stroke="#365aa3" stroke-opacity="0.25" stroke-width="2"></circle><circle r="84.915" cx="1227.1" cy="200.41" stroke="#365aa3" stroke-opacity="0.25" stroke-width="2"></circle><circle r="51.46" cx="1415.22" cy="299.17" stroke="#365aa3" stroke-opacity="0.25" stroke-width="2"></circle><circle r="116.595" cx="272.55" cy="356.77" stroke="#365aa3" stroke-opacity="0.25" stroke-width="2"></circle><circle r="170.34" cx="1154.99" cy="239.14" stroke="#365aa3" stroke-opacity="0.25" stroke-width="2"></circle><circle r="65.205" cx="305.08" cy="523.43" stroke="#365aa3" stroke-opacity="0.25" stroke-width="2"></circle><circle r="136.985" cx="860.62" cy="18.73" stroke="#365aa3" stroke-opacity="0.25" stroke-width="2"></circle><circle r="131.64" cx="1133.21" cy="66.75" stroke="#365aa3" stroke-opacity="0.25" stroke-width="2"></circle><circle r="143.03" cx="736.26" cy="244.09" stroke="#365aa3" stroke-opacity="0.25" stroke-width="2"></circle><circle r="98.02" cx="1011.55" cy="377.87" stroke="#365aa3" stroke-opacity="0.25" stroke-width="2"></circle><circle r="162.465" cx="932.16" cy="5.19" stroke="#365aa3" stroke-opacity="0.25" stroke-width="2"></circle><circle r="126.505" cx="623.49" cy="296.88" stroke="#365aa3" stroke-opacity="0.25" stroke-width="2"></circle><circle r="122.535" cx="898.8" cy="269.02" stroke="#365aa3" stroke-opacity="0.25" stroke-width="2"></circle><circle r="170.905" cx="167.95" cy="307.73" stroke="#365aa3" stroke-opacity="0.25" stroke-width="2"></circle><circle r="71.25" cx="763.31" cy="292.84" stroke="#365aa3" stroke-opacity="0.25" stroke-width="2"></circle><circle r="65.865" cx="1269.45" cy="192.75" stroke="#365aa3" stroke-opacity="0.25" stroke-width="2"></circle><circle r="64.5" cx="917.44" cy="271.24" stroke="#365aa3" stroke-opacity="0.25" stroke-width="2"></circle><circle r="91.925" cx="1057.33" cy="532.46" stroke="#365aa3" stroke-opacity="0.25" stroke-width="2"></circle><circle r="151.875" cx="501.23" cy="367.04" stroke="#365aa3" stroke-opacity="0.25" stroke-width="2"></circle><circle r="90.75" cx="621.18" cy="296.36" stroke="#365aa3" stroke-opacity="0.25" stroke-width="2"></circle><circle r="152.15" cx="484.38" cy="181.63" stroke="#365aa3" stroke-opacity="0.25" stroke-width="2"></circle><circle r="150.375" cx="23.66" cy="306.54" stroke="#365aa3" stroke-opacity="0.25" stroke-width="2"></circle><circle r="113.1" cx="1335.47" cy="457.54" stroke="#365aa3" stroke-opacity="0.25" stroke-width="2"></circle><circle r="51.555" cx="655.02" cy="305.36" stroke="#365aa3" stroke-opacity="0.25" stroke-width="2"></circle><circle r="105.87" cx="1290.42" cy="473.95" stroke="#365aa3" stroke-opacity="0.25" stroke-width="2"></circle><circle r="180.335" cx="829.41" cy="413.57" stroke="#365aa3" stroke-opacity="0.25" stroke-width="2"></circle><circle r="108.875" cx="302.13" cy="88.59" stroke="#365aa3" stroke-opacity="0.25" stroke-width="2"></circle><circle r="177.5" cx="593.08" cy="283.34" stroke="#365aa3" stroke-opacity="0.25" stroke-width="2"></circle><circle r="124.285" cx="768.21" cy="242.99" stroke="#365aa3" stroke-opacity="0.25" stroke-width="2"></circle></g><defs><clipPath id="SvgjsClipPath1000"><rect width="1440" height="560" x="0" y="0"></rect></clipPath></defs></svg>